<mxfile host="app.diagrams.net" modified="2023-07-30T10:24:44.406Z" agent="Mozilla/5.0 (Windows NT 10.0; Win64; x64; rv:109.0) Gecko/20100101 Firefox/115.0" etag="UctdN5do2qWdxLaPoGvI" version="21.6.6">
  <diagram name="Страница 1" id="Op7uaTS2ZSwpce5F1zdu">
    <mxGraphModel dx="830" dy="457" grid="1" gridSize="10" guides="1" tooltips="1" connect="1" arrows="1" fold="1" page="1" pageScale="1" pageWidth="827" pageHeight="1169" math="0" shadow="0">
      <root>
        <mxCell id="0" />
        <mxCell id="1" parent="0" />
        <mxCell id="4kmjUg7XTupkvUbKVNHZ-1" value="" style="rounded=0;whiteSpace=wrap;html=1;" parent="1" vertex="1">
          <mxGeometry x="280" y="400" width="10" height="10" as="geometry" />
        </mxCell>
        <mxCell id="4kmjUg7XTupkvUbKVNHZ-2" value="" style="rounded=0;whiteSpace=wrap;html=1;fillColor=#F19C99;" parent="1" vertex="1">
          <mxGeometry x="290" y="410" width="10" height="10" as="geometry" />
        </mxCell>
        <mxCell id="4kmjUg7XTupkvUbKVNHZ-3" value="" style="rounded=0;whiteSpace=wrap;html=1;" parent="1" vertex="1">
          <mxGeometry x="300" y="400" width="10" height="10" as="geometry" />
        </mxCell>
        <mxCell id="4kmjUg7XTupkvUbKVNHZ-4" value="" style="rounded=0;whiteSpace=wrap;html=1;fillColor=#F19C99;strokeColor=#000000;" parent="1" vertex="1">
          <mxGeometry x="300" y="410" width="10" height="10" as="geometry" />
        </mxCell>
        <mxCell id="4kmjUg7XTupkvUbKVNHZ-5" value="" style="rounded=0;whiteSpace=wrap;html=1;" parent="1" vertex="1">
          <mxGeometry x="290" y="400" width="10" height="10" as="geometry" />
        </mxCell>
        <mxCell id="4kmjUg7XTupkvUbKVNHZ-6" value="" style="rounded=0;whiteSpace=wrap;html=1;" parent="1" vertex="1">
          <mxGeometry x="280" y="410" width="10" height="10" as="geometry" />
        </mxCell>
        <mxCell id="4kmjUg7XTupkvUbKVNHZ-7" value="" style="rounded=0;whiteSpace=wrap;html=1;" parent="1" vertex="1">
          <mxGeometry x="280" y="420" width="10" height="10" as="geometry" />
        </mxCell>
        <mxCell id="4kmjUg7XTupkvUbKVNHZ-8" value="" style="rounded=0;whiteSpace=wrap;html=1;fillColor=#F19C99;" parent="1" vertex="1">
          <mxGeometry x="290" y="430" width="10" height="10" as="geometry" />
        </mxCell>
        <mxCell id="4kmjUg7XTupkvUbKVNHZ-9" value="" style="rounded=0;whiteSpace=wrap;html=1;fillColor=#B9E0A5;" parent="1" vertex="1">
          <mxGeometry x="300" y="420" width="10" height="10" as="geometry" />
        </mxCell>
        <mxCell id="4kmjUg7XTupkvUbKVNHZ-10" value="" style="rounded=0;whiteSpace=wrap;html=1;fillColor=#F19C99;" parent="1" vertex="1">
          <mxGeometry x="300" y="430" width="10" height="10" as="geometry" />
        </mxCell>
        <mxCell id="4kmjUg7XTupkvUbKVNHZ-11" value="" style="rounded=0;whiteSpace=wrap;html=1;fillColor=#F19C99;" parent="1" vertex="1">
          <mxGeometry x="290" y="420" width="10" height="10" as="geometry" />
        </mxCell>
        <mxCell id="4kmjUg7XTupkvUbKVNHZ-12" value="" style="rounded=0;whiteSpace=wrap;html=1;" parent="1" vertex="1">
          <mxGeometry x="280" y="430" width="10" height="10" as="geometry" />
        </mxCell>
        <mxCell id="4kmjUg7XTupkvUbKVNHZ-13" value="" style="rounded=0;whiteSpace=wrap;html=1;" parent="1" vertex="1">
          <mxGeometry x="310" y="400" width="10" height="10" as="geometry" />
        </mxCell>
        <mxCell id="4kmjUg7XTupkvUbKVNHZ-14" value="" style="rounded=0;whiteSpace=wrap;html=1;" parent="1" vertex="1">
          <mxGeometry x="320" y="410" width="10" height="10" as="geometry" />
        </mxCell>
        <mxCell id="4kmjUg7XTupkvUbKVNHZ-17" value="" style="rounded=0;whiteSpace=wrap;html=1;" parent="1" vertex="1">
          <mxGeometry x="320" y="400" width="10" height="10" as="geometry" />
        </mxCell>
        <mxCell id="4kmjUg7XTupkvUbKVNHZ-18" value="" style="rounded=0;whiteSpace=wrap;html=1;fillColor=#F19C99;" parent="1" vertex="1">
          <mxGeometry x="310" y="410" width="10" height="10" as="geometry" />
        </mxCell>
        <mxCell id="4kmjUg7XTupkvUbKVNHZ-19" value="" style="rounded=0;whiteSpace=wrap;html=1;fillColor=#F19C99;" parent="1" vertex="1">
          <mxGeometry x="310" y="420" width="10" height="10" as="geometry" />
        </mxCell>
        <mxCell id="4kmjUg7XTupkvUbKVNHZ-20" value="" style="rounded=0;whiteSpace=wrap;html=1;" parent="1" vertex="1">
          <mxGeometry x="320" y="430" width="10" height="10" as="geometry" />
        </mxCell>
        <mxCell id="4kmjUg7XTupkvUbKVNHZ-23" value="" style="rounded=0;whiteSpace=wrap;html=1;" parent="1" vertex="1">
          <mxGeometry x="320" y="420" width="10" height="10" as="geometry" />
        </mxCell>
        <mxCell id="4kmjUg7XTupkvUbKVNHZ-24" value="" style="rounded=0;whiteSpace=wrap;html=1;fillColor=#F19C99;" parent="1" vertex="1">
          <mxGeometry x="310" y="430" width="10" height="10" as="geometry" />
        </mxCell>
        <mxCell id="4kmjUg7XTupkvUbKVNHZ-25" value="" style="rounded=0;whiteSpace=wrap;html=1;" parent="1" vertex="1">
          <mxGeometry x="290" y="440" width="10" height="10" as="geometry" />
        </mxCell>
        <mxCell id="4kmjUg7XTupkvUbKVNHZ-26" value="" style="rounded=0;whiteSpace=wrap;html=1;" parent="1" vertex="1">
          <mxGeometry x="300" y="440" width="10" height="10" as="geometry" />
        </mxCell>
        <mxCell id="4kmjUg7XTupkvUbKVNHZ-27" value="" style="rounded=0;whiteSpace=wrap;html=1;" parent="1" vertex="1">
          <mxGeometry x="280" y="440" width="10" height="10" as="geometry" />
        </mxCell>
        <mxCell id="4kmjUg7XTupkvUbKVNHZ-28" value="" style="rounded=0;whiteSpace=wrap;html=1;" parent="1" vertex="1">
          <mxGeometry x="320" y="440" width="10" height="10" as="geometry" />
        </mxCell>
        <mxCell id="4kmjUg7XTupkvUbKVNHZ-30" value="" style="rounded=0;whiteSpace=wrap;html=1;" parent="1" vertex="1">
          <mxGeometry x="310" y="440" width="10" height="10" as="geometry" />
        </mxCell>
        <mxCell id="4kmjUg7XTupkvUbKVNHZ-192" value="" style="rounded=0;whiteSpace=wrap;html=1;fillColor=#B9E0A5;" parent="1" vertex="1">
          <mxGeometry x="350" y="400" width="10" height="10" as="geometry" />
        </mxCell>
        <mxCell id="4kmjUg7XTupkvUbKVNHZ-193" value="&lt;div style=&quot;font-size: 10px;&quot;&gt;Рассматриваемая клетка&lt;/div&gt;" style="text;html=1;align=center;verticalAlign=middle;resizable=0;points=[];autosize=1;strokeColor=none;fillColor=none;fontSize=10;" parent="1" vertex="1">
          <mxGeometry x="360" y="390" width="140" height="30" as="geometry" />
        </mxCell>
        <mxCell id="4kmjUg7XTupkvUbKVNHZ-194" value="" style="rounded=0;whiteSpace=wrap;html=1;fillColor=#F19C99;" parent="1" vertex="1">
          <mxGeometry x="350" y="420" width="10" height="10" as="geometry" />
        </mxCell>
        <mxCell id="4kmjUg7XTupkvUbKVNHZ-195" value="&lt;div style=&quot;font-size: 10px;&quot;&gt;Соседи этой клетки&lt;/div&gt;" style="text;html=1;align=center;verticalAlign=middle;resizable=0;points=[];autosize=1;strokeColor=none;fillColor=none;fontSize=10;" parent="1" vertex="1">
          <mxGeometry x="360" y="410" width="110" height="30" as="geometry" />
        </mxCell>
        <mxCell id="4kmjUg7XTupkvUbKVNHZ-196" value="" style="rounded=0;whiteSpace=wrap;html=1;" parent="1" vertex="1">
          <mxGeometry x="350" y="440" width="10" height="10" as="geometry" />
        </mxCell>
        <mxCell id="4kmjUg7XTupkvUbKVNHZ-197" value="Другие клетки" style="text;html=1;align=center;verticalAlign=middle;resizable=0;points=[];autosize=1;strokeColor=none;fillColor=none;fontSize=10;" parent="1" vertex="1">
          <mxGeometry x="360" y="430" width="90" height="30" as="geometry" />
        </mxCell>
      </root>
    </mxGraphModel>
  </diagram>
</mxfile>
